<svg width="48" height="48" viewBox="0 0 48 48" fill="none" xmlns="http://www.w3.org/2000/svg">
<g clip-path="url(#clip0_64_33)">
<path fill-rule="evenodd" clip-rule="evenodd" d="M29.3602 22.48C29.0715 22.0231 28.664 21.6534 28.1814 21.4103C27.6987 21.1672 27.1591 21.06 26.6202 21.1C25.9873 21.1333 25.3648 21.2754 24.7802 21.52C24.6602 21.22 24.5602 20.9 24.4602 20.58L24.1002 19.72C24.648 19.5763 25.2143 19.5156 25.7802 19.54C25.979 19.5686 26.1811 19.5174 26.3422 19.3975C26.5034 19.2775 26.6105 19.0987 26.6402 18.9C26.6574 18.7989 26.6544 18.6953 26.6316 18.5953C26.6087 18.4953 26.5663 18.4008 26.5069 18.3172C26.4474 18.2336 26.3721 18.1626 26.2851 18.1081C26.1982 18.0537 26.1013 18.017 26.0002 18C25.1592 17.8616 24.3012 17.8616 23.4602 18C23.1402 17.18 22.7802 16.34 22.4802 15.52C22.4326 15.3278 22.312 15.1618 22.1439 15.0572C21.9758 14.9526 21.7736 14.9177 21.5802 14.96C21.4837 14.9812 21.3924 15.0214 21.3117 15.0784C21.231 15.1354 21.1625 15.208 21.1103 15.2919C21.0581 15.3758 21.0233 15.4692 21.0078 15.5668C20.9923 15.6644 20.9965 15.7641 21.0202 15.86C21.1202 16.78 21.3002 17.72 21.4202 18.64C21.0007 18.7568 20.5924 18.9108 20.2002 19.1C19.8152 19.3192 19.478 19.6133 19.2084 19.9648C18.9388 20.3164 18.7423 20.7183 18.6305 21.147C18.5186 21.5757 18.4937 22.0224 18.5572 22.4609C18.6207 22.8993 18.7713 23.3206 19.0002 23.7C19.2274 24.1813 19.5828 24.5908 20.0272 24.8836C20.4717 25.1764 20.9882 25.3412 21.5202 25.36C22.0321 25.349 22.5388 25.2544 23.0202 25.08L23.2602 25.7C23.5402 26.36 23.8802 26.98 24.1802 27.7C23.2337 28.0695 22.1894 28.1048 21.2202 27.8C21.1192 27.7532 21.0099 27.727 20.8987 27.7229C20.7875 27.7187 20.6765 27.7367 20.5723 27.7758C20.4681 27.8148 20.3727 27.8742 20.2917 27.9505C20.2106 28.0268 20.1455 28.1184 20.1002 28.22C20.0502 28.322 20.0215 28.433 20.0157 28.5464C20.0099 28.6599 20.0271 28.7733 20.0664 28.8798C20.1056 28.9864 20.1661 29.0839 20.2441 29.1664C20.3221 29.2489 20.416 29.3148 20.5202 29.36C21.9687 29.9599 23.5806 30.0377 25.0802 29.58L25.6202 30.68C25.662 30.7852 25.7242 30.8811 25.8032 30.9622C25.8822 31.0433 25.9764 31.108 26.0805 31.1526C26.1845 31.1972 26.2964 31.2208 26.4096 31.2221C26.5228 31.2233 26.6351 31.2022 26.7402 31.16C26.8504 31.119 26.9508 31.0553 27.0349 30.973C27.119 30.8907 27.1848 30.7917 27.2282 30.6823C27.2716 30.573 27.2915 30.4557 27.2867 30.3382C27.2818 30.2206 27.2524 30.1054 27.2002 30L26.9002 28.86C27.3344 28.6738 27.7497 28.446 28.1402 28.18C28.6076 27.8975 29.0122 27.5223 29.329 27.0776C29.6459 26.6328 29.8684 26.1278 29.9826 25.5938C30.0969 25.0598 30.1007 24.508 29.9936 23.9725C29.8866 23.437 29.671 22.929 29.3602 22.48ZM21.2402 22.48C20.7602 21.78 21.1202 21.18 21.7202 20.74C21.7202 20.94 21.7202 21.14 21.8202 21.34C21.9202 21.54 22.0202 22.12 22.1402 22.52L21.7802 22.64C21.5802 22.68 21.3802 22.7 21.2402 22.5V22.48ZM26.2802 26.66C26.1402 26.06 25.9802 25.48 25.8202 24.9L25.6402 24.26C25.9318 24.1364 26.2327 24.0361 26.5402 23.96C26.7402 23.96 26.9402 23.96 27.0602 24.08C27.8002 25.06 27.2002 26 26.2802 26.68V26.66Z" fill="black"/>
<path fill-rule="evenodd" clip-rule="evenodd" d="M45.4599 19C45.0341 17.8219 44.5467 16.667 43.9999 15.54C43.3922 14.4053 42.7246 13.3038 41.9999 12.24C40.3448 9.78854 38.4704 7.49244 36.3999 5.38C36.3325 5.30666 36.2506 5.24811 36.1593 5.20806C36.0681 5.16802 35.9696 5.14734 35.8699 5.14734C35.7703 5.14734 35.6718 5.16802 35.5805 5.20806C35.4893 5.24811 35.4074 5.30666 35.3399 5.38C35.2171 5.48792 35.1387 5.63758 35.1199 5.8C34.9784 5.69449 34.8065 5.63749 34.6299 5.63749C34.4534 5.63749 34.2815 5.69449 34.1399 5.8C32.1639 7.12267 30.1139 8.3313 27.9999 9.42C26.656 10.1143 25.2224 10.6191 23.7399 10.92C20.6006 11.2835 17.4373 11.3972 14.2799 11.26C12.8291 11.337 11.3924 11.5854 9.99994 12C8.45888 12.5242 7.00331 13.2722 5.67994 14.22C3.78921 15.5585 2.07558 17.131 0.579939 18.9C0.510919 18.9861 0.460968 19.0859 0.433386 19.1928C0.405805 19.2997 0.401221 19.4112 0.419939 19.52C0.253534 19.5986 0.122403 19.7365 0.0521404 19.9066C-0.0181219 20.0767 -0.0224719 20.2669 0.0399394 20.44C0.799939 22.98 1.43994 25.62 2.29994 28.22C3.00877 30.4488 3.89839 32.616 4.95994 34.7C6.18712 37.173 7.60473 39.5468 9.19994 41.8C9.29643 41.9368 9.43246 42.0408 9.58977 42.098C9.74708 42.1552 9.91813 42.1629 10.0799 42.12C10.0665 42.2979 10.116 42.4749 10.2199 42.62C10.3483 42.7709 10.5294 42.8673 10.7262 42.8895C10.9231 42.9118 11.1211 42.8584 11.2799 42.74C13.1835 41.3508 15.1892 40.1072 17.2799 39.02C19.2552 37.9529 21.4001 37.2357 23.6199 36.9C25.7975 36.5479 27.9953 36.3341 30.1999 36.26C32.5228 36.1596 34.832 35.8517 37.0999 35.34C40.2337 34.6278 43.1159 33.0796 45.4399 30.86C45.6104 30.7129 45.7163 30.5048 45.735 30.2804C45.7537 30.0561 45.6837 29.8333 45.5399 29.66C45.3737 29.5068 45.156 29.4217 44.9299 29.4217C44.7039 29.4217 44.4861 29.5068 44.3199 29.66C42.0887 31.4409 39.4372 32.6186 36.6199 33.08C34.4371 33.3532 32.2398 33.4934 30.0399 33.5C27.7181 33.5458 25.4039 33.7799 23.1199 34.2C21.1343 34.6574 19.2271 35.4055 17.4599 36.42C15.0679 37.8322 12.8234 39.4804 10.7599 41.34C10.7809 41.2209 10.7809 41.0991 10.7599 40.98C9.47822 38.5225 8.3429 35.9915 7.35994 33.4C6.67994 31.7 6.03994 29.98 5.35994 28.3C4.15994 25.46 2.79994 22.7 1.55994 20H1.73994C3.0344 18.7119 4.46247 17.5654 5.99994 16.58C7.4434 15.6409 9.04122 14.9639 10.7199 14.58C12.0349 14.3024 13.3761 14.1683 14.7199 14.18H21.4399C22.4321 14.0949 23.4155 13.9277 24.3799 13.68C26.0566 13.2331 27.6646 12.5603 29.1599 11.68C31.2407 10.3267 33.2438 8.85772 35.1599 7.28C35.277 7.17271 35.3604 7.03376 35.3999 6.88C36.9494 9.13805 38.3587 11.4891 39.6199 13.92C40.1999 14.98 40.7599 16.04 41.3199 17.12C41.8799 18.2 42.4399 19.26 42.9799 20.36C44.2512 22.8347 45.3667 25.3863 46.3199 28C46.35 28.1091 46.4013 28.2112 46.4709 28.3004C46.5404 28.3896 46.6269 28.4643 46.7254 28.52C46.8239 28.5757 46.9324 28.6115 47.0447 28.6252C47.157 28.639 47.2709 28.6304 47.3799 28.6C47.5966 28.5351 47.7789 28.3874 47.8875 28.189C47.996 27.9906 48.0221 27.7575 47.9599 27.54C47.3721 24.6271 46.5358 21.77 45.4599 19Z" fill="black"/>
<path fill-rule="evenodd" clip-rule="evenodd" d="M34.2201 28.12C34.111 28.0901 33.9971 28.0826 33.885 28.0978C33.773 28.1131 33.6652 28.1508 33.5681 28.2087C33.471 28.2666 33.3866 28.3435 33.3199 28.4347C33.2532 28.526 33.2056 28.6299 33.1801 28.74C33.1499 28.8477 33.1416 28.9603 33.1555 29.0713C33.1695 29.1822 33.2055 29.2893 33.2614 29.3862C33.3173 29.483 33.3919 29.5678 33.481 29.6354C33.5701 29.703 33.6717 29.7522 33.7801 29.78C35.0007 30.0898 36.2794 30.0898 37.5001 29.78C39.2353 29.3574 40.8995 28.6836 42.4401 27.78C42.7111 27.532 42.9086 27.2142 43.0109 26.8614C43.1132 26.5086 43.1164 26.1345 43.0201 25.78C42.5046 23.1909 41.6295 20.6866 40.42 18.34C39.5416 16.5082 38.4759 14.7723 37.2401 13.16C36.6047 12.2371 35.6951 11.5374 34.6401 11.16C34.0929 11.1106 33.548 11.2755 33.1201 11.62C31.6802 13.1016 29.9323 14.2486 28.0001 14.98C27.8933 14.9892 27.7898 15.0208 27.6961 15.0728C27.6025 15.1248 27.5209 15.196 27.4567 15.2818C27.3925 15.3676 27.3472 15.4659 27.3237 15.5704C27.3002 15.6749 27.299 15.7832 27.3203 15.8882C27.3416 15.9932 27.3848 16.0925 27.4472 16.1796C27.5095 16.2667 27.5896 16.3396 27.6821 16.3936C27.7746 16.4476 27.8775 16.4814 27.984 16.4928C28.0905 16.5043 28.1982 16.4931 28.3001 16.46C29.3465 16.279 30.3544 15.9205 31.2801 15.4C32.3989 14.9676 33.4656 14.4108 34.4601 13.74L34.5601 13.88C35.1489 14.6431 35.6645 15.4601 36.1 16.32C37.04 17.94 38.1001 19.94 38.8401 21.76C39.4069 22.972 39.9076 24.2138 40.3401 25.48C40.3401 25.68 40.5001 25.9 40.5601 26.06C39.4486 26.8054 38.2452 27.4037 36.9801 27.84C36.0985 28.165 35.1489 28.2614 34.2201 28.12Z" fill="black"/>
<path fill-rule="evenodd" clip-rule="evenodd" d="M10.2999 19.88C11.3802 19.2507 12.5663 18.8237 13.7999 18.62C15.1174 18.359 16.4691 18.3185 17.7999 18.5C17.9981 18.5295 18.2001 18.4816 18.364 18.3661C18.5278 18.2507 18.641 18.0766 18.6799 17.88C18.6968 17.7771 18.6924 17.6717 18.6668 17.5706C18.6412 17.4694 18.5951 17.3746 18.5313 17.2921C18.4675 17.2095 18.3874 17.141 18.296 17.0907C18.2046 17.0405 18.1038 17.0096 17.9999 17C16.5319 16.6639 15.0208 16.5559 13.5199 16.68C11.9363 16.776 10.3838 17.1624 8.9399 17.82C8.14318 18.2892 7.42175 18.8758 6.7999 19.56C6.27614 20.1243 5.90449 20.8125 5.7199 21.56C5.60964 22.0742 5.60964 22.6058 5.7199 23.12C5.82921 23.6806 5.96942 24.2348 6.1399 24.78C6.4199 25.64 6.6799 26.56 6.9999 27.44C7.3199 28.32 7.6799 29.22 8.0799 30.1L10.0799 34.1L10.5999 35.14C10.7278 35.3655 10.9193 35.5484 11.1505 35.6658C11.3817 35.7831 11.6423 35.8298 11.8999 35.8C12.4599 35.66 13.4999 34.62 15.2599 33.8C15.8954 33.4662 16.5662 33.2046 17.2599 33.02C17.3817 33.0137 17.5008 32.9815 17.6093 32.9257C17.7177 32.8698 17.813 32.7915 17.8889 32.696C17.9648 32.6005 18.0195 32.4899 18.0493 32.3716C18.0792 32.2533 18.0835 32.1301 18.0621 32.01C18.0406 31.8899 17.9939 31.7757 17.9249 31.6751C17.856 31.5744 17.7664 31.4896 17.6622 31.4263C17.5579 31.3629 17.4414 31.3224 17.3203 31.3076C17.1992 31.2927 17.0764 31.3037 16.9599 31.34C16.0701 31.477 15.1982 31.7118 14.3599 32.04C13.5953 32.3748 12.8652 32.7834 12.1799 33.26L10.4999 29.12L8.7999 24.08C8.6999 23.7 8.5599 23.34 8.4599 22.94C8.42033 22.7285 8.42033 22.5115 8.4599 22.3C8.56007 21.8988 8.76748 21.5324 9.0599 21.24C9.42694 20.7465 9.84234 20.2909 10.2999 19.88Z" fill="black"/>
</g>
<defs>
<clipPath id="clip0_64_33">
<rect width="48" height="48" fill="white"/>
</clipPath>
</defs>
</svg>
