<svg width="48" height="38" viewBox="0 0 48 38" fill="none" xmlns="http://www.w3.org/2000/svg">
<path fill-rule="evenodd" clip-rule="evenodd" d="M29.3602 17.48C29.0715 17.0231 28.664 16.6534 28.1814 16.4103C27.6987 16.1672 27.1591 16.06 26.6202 16.1C25.9873 16.1333 25.3648 16.2754 24.7802 16.52C24.6602 16.22 24.5602 15.9 24.4602 15.58L24.1002 14.72C24.648 14.5763 25.2143 14.5156 25.7802 14.54C25.979 14.5686 26.1811 14.5174 26.3422 14.3975C26.5034 14.2775 26.6105 14.0987 26.6402 13.9C26.6574 13.7989 26.6544 13.6953 26.6316 13.5953C26.6087 13.4953 26.5663 13.4008 26.5069 13.3172C26.4474 13.2336 26.3721 13.1626 26.2851 13.1081C26.1982 13.0537 26.1013 13.017 26.0002 13C25.1592 12.8616 24.3012 12.8616 23.4602 13C23.1402 12.18 22.7802 11.34 22.4802 10.52C22.4326 10.3278 22.312 10.1618 22.1439 10.0572C21.9758 9.95261 21.7736 9.91774 21.5802 9.95999C21.4837 9.98115 21.3924 10.0214 21.3117 10.0784C21.231 10.1354 21.1625 10.208 21.1103 10.2919C21.0581 10.3758 21.0233 10.4692 21.0078 10.5668C20.9923 10.6644 20.9965 10.7641 21.0202 10.86C21.1202 11.78 21.3002 12.72 21.4202 13.64C21.0007 13.7568 20.5924 13.9108 20.2002 14.1C19.8152 14.3192 19.478 14.6133 19.2084 14.9648C18.9388 15.3164 18.7423 15.7183 18.6305 16.147C18.5186 16.5757 18.4937 17.0224 18.5572 17.4609C18.6207 17.8993 18.7713 18.3206 19.0002 18.7C19.2274 19.1813 19.5828 19.5908 20.0272 19.8836C20.4717 20.1764 20.9882 20.3412 21.5202 20.36C22.0321 20.349 22.5388 20.2544 23.0202 20.08L23.2602 20.7C23.5402 21.36 23.8802 21.98 24.1802 22.7C23.2337 23.0695 22.1894 23.1048 21.2202 22.8C21.1192 22.7532 21.0099 22.727 20.8987 22.7229C20.7875 22.7187 20.6765 22.7367 20.5723 22.7758C20.4681 22.8148 20.3727 22.8742 20.2917 22.9505C20.2106 23.0268 20.1455 23.1184 20.1002 23.22C20.0502 23.322 20.0215 23.433 20.0157 23.5464C20.0099 23.6599 20.0271 23.7733 20.0664 23.8798C20.1056 23.9864 20.1661 24.0839 20.2441 24.1664C20.3221 24.2489 20.416 24.3148 20.5202 24.36C21.9687 24.9599 23.5806 25.0377 25.0802 24.58L25.6202 25.68C25.662 25.7852 25.7242 25.8811 25.8032 25.9622C25.8822 26.0433 25.9764 26.108 26.0805 26.1526C26.1845 26.1972 26.2964 26.2208 26.4096 26.2221C26.5228 26.2233 26.6351 26.2022 26.7402 26.16C26.8504 26.119 26.9508 26.0553 27.0349 25.973C27.119 25.8907 27.1848 25.7917 27.2282 25.6823C27.2716 25.573 27.2915 25.4557 27.2867 25.3382C27.2818 25.2206 27.2524 25.1054 27.2002 25L26.9002 23.86C27.3344 23.6738 27.7497 23.446 28.1402 23.18C28.6076 22.8975 29.0122 22.5223 29.329 22.0776C29.6459 21.6328 29.8684 21.1278 29.9826 20.5938C30.0969 20.0598 30.1007 19.508 29.9936 18.9725C29.8866 18.437 29.671 17.929 29.3602 17.48ZM21.2402 17.48C20.7602 16.78 21.1202 16.18 21.7202 15.74C21.7202 15.94 21.7202 16.14 21.8202 16.34C21.9202 16.54 22.0202 17.12 22.1402 17.52L21.7802 17.64C21.5802 17.68 21.3802 17.7 21.2402 17.5V17.48ZM26.2802 21.66C26.1402 21.06 25.9802 20.48 25.8202 19.9L25.6402 19.26C25.9318 19.1364 26.2327 19.0361 26.5402 18.96C26.7402 18.96 26.9402 18.96 27.0602 19.08C27.8002 20.06 27.2002 21 26.2802 21.68V21.66Z" fill="black"/>
<path fill-rule="evenodd" clip-rule="evenodd" d="M45.4599 14C45.0341 12.8219 44.5467 11.667 43.9999 10.54C43.3922 9.40534 42.7246 8.30378 41.9999 7.24C40.3448 4.78854 38.4704 2.49244 36.3999 0.379999C36.3325 0.306659 36.2506 0.248112 36.1593 0.208065C36.0681 0.168017 35.9696 0.147339 35.8699 0.147339C35.7703 0.147339 35.6718 0.168017 35.5805 0.208065C35.4893 0.248112 35.4074 0.306659 35.3399 0.379999C35.2171 0.487917 35.1387 0.637582 35.1199 0.799999C34.9784 0.694488 34.8065 0.637494 34.6299 0.637494C34.4534 0.637494 34.2815 0.694488 34.1399 0.799999C32.1639 2.12267 30.1139 3.3313 27.9999 4.42C26.656 5.1143 25.2224 5.6191 23.7399 5.92C20.6006 6.28355 17.4373 6.39724 14.2799 6.26C12.8291 6.33701 11.3924 6.5854 9.99994 7C8.45888 7.52419 7.00331 8.2722 5.67994 9.22C3.78921 10.5585 2.07558 12.131 0.579939 13.9C0.510919 13.9861 0.460968 14.0859 0.433386 14.1928C0.405805 14.2997 0.401221 14.4112 0.419939 14.52C0.253534 14.5986 0.122403 14.7365 0.0521404 14.9066C-0.0181219 15.0767 -0.0224719 15.2669 0.0399394 15.44C0.799939 17.98 1.43994 20.62 2.29994 23.22C3.00877 25.4488 3.89839 27.616 4.95994 29.7C6.18712 32.173 7.60473 34.5468 9.19994 36.8C9.29643 36.9368 9.43246 37.0408 9.58977 37.098C9.74708 37.1552 9.91813 37.1629 10.0799 37.12C10.0665 37.2979 10.116 37.4749 10.2199 37.62C10.3483 37.7709 10.5294 37.8673 10.7262 37.8895C10.9231 37.9118 11.1211 37.8584 11.2799 37.74C13.1835 36.3508 15.1892 35.1072 17.2799 34.02C19.2552 32.9529 21.4001 32.2357 23.6199 31.9C25.7975 31.5479 27.9953 31.3341 30.1999 31.26C32.5228 31.1596 34.832 30.8517 37.0999 30.34C40.2337 29.6278 43.1159 28.0796 45.4399 25.86C45.6104 25.7129 45.7163 25.5048 45.735 25.2804C45.7537 25.0561 45.6837 24.8333 45.5399 24.66C45.3737 24.5068 45.156 24.4217 44.9299 24.4217C44.7039 24.4217 44.4861 24.5068 44.3199 24.66C42.0887 26.4409 39.4372 27.6186 36.6199 28.08C34.4371 28.3532 32.2398 28.4934 30.0399 28.5C27.7181 28.5458 25.4039 28.7799 23.1199 29.2C21.1343 29.6574 19.2271 30.4055 17.4599 31.42C15.0679 32.8322 12.8234 34.4804 10.7599 36.34C10.7809 36.2209 10.7809 36.0991 10.7599 35.98C9.47822 33.5225 8.3429 30.9915 7.35994 28.4C6.67994 26.7 6.03994 24.98 5.35994 23.3C4.15994 20.46 2.79994 17.7 1.55994 15H1.73994C3.0344 13.7119 4.46247 12.5654 5.99994 11.58C7.4434 10.6409 9.04122 9.96388 10.7199 9.58C12.0349 9.30239 13.3761 9.16828 14.7199 9.18H21.4399C22.4321 9.09494 23.4155 8.9277 24.3799 8.68C26.0566 8.23308 27.6646 7.56025 29.1599 6.68C31.2407 5.3267 33.2438 3.85772 35.1599 2.28C35.277 2.17271 35.3604 2.03376 35.3999 1.88C36.9494 4.13805 38.3587 6.48915 39.6199 8.92C40.1999 9.98 40.7599 11.04 41.3199 12.12C41.8799 13.2 42.4399 14.26 42.9799 15.36C44.2512 17.8347 45.3667 20.3863 46.3199 23C46.35 23.1091 46.4013 23.2112 46.4709 23.3004C46.5404 23.3896 46.6269 23.4643 46.7254 23.52C46.8239 23.5757 46.9324 23.6115 47.0447 23.6252C47.157 23.639 47.2709 23.6304 47.3799 23.6C47.5966 23.5351 47.7789 23.3874 47.8875 23.189C47.996 22.9906 48.0221 22.7575 47.9599 22.54C47.3721 19.6271 46.5358 16.77 45.4599 14Z" fill="black"/>
<path fill-rule="evenodd" clip-rule="evenodd" d="M34.2201 23.12C34.111 23.0901 33.9971 23.0826 33.885 23.0978C33.773 23.1131 33.6652 23.1508 33.5681 23.2087C33.471 23.2666 33.3866 23.3435 33.3199 23.4347C33.2532 23.526 33.2056 23.6299 33.1801 23.74C33.1499 23.8477 33.1416 23.9603 33.1555 24.0713C33.1695 24.1822 33.2055 24.2893 33.2614 24.3862C33.3173 24.483 33.3919 24.5678 33.481 24.6354C33.5701 24.703 33.6717 24.7522 33.7801 24.78C35.0007 25.0898 36.2794 25.0898 37.5001 24.78C39.2353 24.3574 40.8995 23.6836 42.4401 22.78C42.7111 22.532 42.9086 22.2142 43.0109 21.8614C43.1132 21.5086 43.1164 21.1345 43.0201 20.78C42.5046 18.1909 41.6295 15.6866 40.42 13.34C39.5416 11.5082 38.4759 9.77231 37.2401 8.15999C36.6047 7.23706 35.6951 6.53737 34.6401 6.15999C34.0929 6.11059 33.548 6.27551 33.1201 6.61999C31.6802 8.10157 29.9323 9.24862 28.0001 9.97999C27.8933 9.98917 27.7898 10.0208 27.6961 10.0728C27.6025 10.1248 27.5209 10.196 27.4567 10.2818C27.3925 10.3676 27.3472 10.4659 27.3237 10.5704C27.3002 10.6749 27.299 10.7832 27.3203 10.8882C27.3416 10.9932 27.3848 11.0925 27.4472 11.1796C27.5095 11.2667 27.5896 11.3396 27.6821 11.3936C27.7746 11.4476 27.8775 11.4814 27.984 11.4928C28.0905 11.5043 28.1982 11.4931 28.3001 11.46C29.3465 11.279 30.3544 10.9205 31.2801 10.4C32.3989 9.96761 33.4656 9.41078 34.4601 8.73999L34.5601 8.87999C35.1489 9.64313 35.6645 10.4601 36.1 11.32C37.04 12.94 38.1001 14.94 38.8401 16.76C39.4069 17.972 39.9076 19.2138 40.3401 20.48C40.3401 20.68 40.5001 20.9 40.5601 21.06C39.4486 21.8054 38.2452 22.4037 36.9801 22.84C36.0985 23.165 35.1489 23.2614 34.2201 23.12Z" fill="black"/>
<path fill-rule="evenodd" clip-rule="evenodd" d="M10.2999 14.88C11.3802 14.2507 12.5663 13.8237 13.7999 13.62C15.1174 13.359 16.4691 13.3185 17.7999 13.5C17.9981 13.5295 18.2001 13.4816 18.364 13.3661C18.5278 13.2507 18.641 13.0766 18.6799 12.88C18.6968 12.7771 18.6924 12.6717 18.6668 12.5706C18.6412 12.4694 18.5951 12.3746 18.5313 12.2921C18.4675 12.2095 18.3874 12.141 18.296 12.0907C18.2046 12.0405 18.1038 12.0096 17.9999 12C16.5319 11.6639 15.0208 11.5559 13.5199 11.68C11.9363 11.776 10.3838 12.1624 8.9399 12.82C8.14318 13.2892 7.42175 13.8758 6.7999 14.56C6.27614 15.1243 5.90449 15.8125 5.7199 16.56C5.60964 17.0742 5.60964 17.6058 5.7199 18.12C5.82921 18.6806 5.96942 19.2348 6.1399 19.78C6.4199 20.64 6.6799 21.56 6.9999 22.44C7.3199 23.32 7.6799 24.22 8.0799 25.1L10.0799 29.1L10.5999 30.14C10.7278 30.3655 10.9193 30.5484 11.1505 30.6658C11.3817 30.7831 11.6423 30.8298 11.8999 30.8C12.4599 30.66 13.4999 29.62 15.2599 28.8C15.8954 28.4662 16.5662 28.2046 17.2599 28.02C17.3817 28.0137 17.5008 27.9815 17.6093 27.9257C17.7177 27.8698 17.813 27.7915 17.8889 27.696C17.9648 27.6005 18.0195 27.4899 18.0493 27.3716C18.0792 27.2533 18.0835 27.1301 18.0621 27.01C18.0406 26.8899 17.9939 26.7757 17.9249 26.6751C17.856 26.5744 17.7664 26.4896 17.6622 26.4263C17.5579 26.3629 17.4414 26.3224 17.3203 26.3076C17.1992 26.2927 17.0764 26.3037 16.9599 26.34C16.0701 26.477 15.1982 26.7118 14.3599 27.04C13.5953 27.3748 12.8652 27.7834 12.1799 28.26L10.4999 24.12L8.7999 19.08C8.6999 18.7 8.5599 18.34 8.4599 17.94C8.42033 17.7285 8.42033 17.5115 8.4599 17.3C8.56007 16.8988 8.76748 16.5324 9.0599 16.24C9.42694 15.7465 9.84234 15.2909 10.2999 14.88Z" fill="black"/>
</svg>
