<svg width="48" height="48" viewBox="0 0 48 48" fill="none" xmlns="http://www.w3.org/2000/svg">
<g clip-path="url(#clip0_64_3)">
<path fill-rule="evenodd" clip-rule="evenodd" d="M25.8802 32.44C25.6946 32.44 25.5165 32.5137 25.3852 32.645C25.254 32.7763 25.1802 32.9543 25.1802 33.14C25.1802 33.3256 25.254 33.5037 25.3852 33.635C25.5165 33.7662 25.6946 33.84 25.8802 33.84C29.1802 33.84 28.0602 38.44 25.4202 40C23.5802 41.08 21.2602 40 21.1402 37.18C21.0412 36.4784 21.1562 35.7632 21.4702 35.1281C21.7842 34.4929 22.2826 33.9673 22.9002 33.62C23.0387 33.5534 23.1475 33.4378 23.2055 33.2956C23.2636 33.1533 23.2668 32.9946 23.2145 32.8502C23.1622 32.7057 23.0581 32.5858 22.9224 32.5138C22.7868 32.4417 22.6292 32.4225 22.4802 32.46C21.5314 32.8276 20.7181 33.4771 20.1495 34.321C19.581 35.1648 19.2846 36.1626 19.3002 37.18C19.1379 38.1 19.2488 39.0474 19.6191 39.905C19.9894 40.7627 20.6029 41.4931 21.3838 42.0058C22.1647 42.5186 23.0787 42.7914 24.0129 42.7903C24.9471 42.7893 25.8605 42.5145 26.6402 42C30.6002 39.46 31.3402 32.3 25.8802 32.44Z" fill="black"/>
<path fill-rule="evenodd" clip-rule="evenodd" d="M22.8198 25.28C21.0252 25.6138 19.2963 26.2351 17.6998 27.12C15.7947 28.4031 14.2738 30.1797 13.2998 32.26C13.2998 32.4244 13.3651 32.5821 13.4814 32.6984C13.5977 32.8146 13.7554 32.88 13.9198 32.88C14.4398 32.88 14.3798 32.5 14.7798 32.02C15.8387 30.8142 17.097 29.7994 18.4998 29.02C23.3798 27.28 26.3398 26.32 31.9998 29.84C32.1511 29.9245 32.3283 29.95 32.4972 29.9114C32.6662 29.8728 32.8148 29.7729 32.9143 29.631C33.0139 29.4892 33.0573 29.3155 33.0361 29.1435C33.015 28.9715 32.9308 28.8135 32.7998 28.7C29.7798 26.44 26.7598 24.72 22.8198 25.28Z" fill="black"/>
<path fill-rule="evenodd" clip-rule="evenodd" d="M34.8202 19.14C30.9425 16.6054 26.3052 15.4956 21.7002 16C19.0253 16.6035 16.438 17.5444 14.0002 18.8C11.7402 19.86 7.40022 25.08 7.44022 26C7.44017 26.0805 7.45633 26.1602 7.48772 26.2343C7.51912 26.3084 7.56511 26.3755 7.62296 26.4315C7.68081 26.4875 7.74934 26.5312 7.82446 26.5602C7.89958 26.5891 7.97976 26.6027 8.06022 26.6C8.62022 26.6 8.48022 26.22 8.98022 25.56C10.6048 23.5688 12.5766 21.8883 14.8002 20.6C17.1067 19.5805 19.5225 18.8289 22.0002 18.36C26.0924 17.944 30.2144 18.781 33.8202 20.76C39.2002 23.66 39.7202 26.32 40.7402 25.34C40.8698 25.2058 40.9421 25.0265 40.9421 24.84C40.9421 24.6535 40.8698 24.4742 40.7402 24.34C39.0439 22.3146 37.0474 20.561 34.8202 19.14Z" fill="black"/>
<path fill-rule="evenodd" clip-rule="evenodd" d="M47.8 17.18C45.3228 14.2765 42.3996 11.7854 39.14 9.79998C35.8274 7.80296 32.1935 6.39544 28.4 5.63998C20.78 4.25998 16.58 6.23998 9.46 9.33998C6.32 10.74 9.2655e-08 18.12 9.2655e-08 19.46C-4.4645e-05 19.5405 0.016112 19.6202 0.0475077 19.6943C0.0789035 19.7684 0.124896 19.8355 0.182747 19.8915C0.240598 19.9475 0.309124 19.9912 0.384243 20.0202C0.459363 20.0491 0.53954 20.0627 0.62 20.06C1.24 20.06 0.94 19.74 1.72 18.66C4.08019 15.6665 6.95104 13.1139 10.2 11.12C16.64 8.57998 21.22 6.71998 28 7.99998C31.5775 8.56538 35.0291 9.74975 38.2 11.5C41.4043 13.2617 44.3019 15.5311 46.78 18.22C46.9179 18.3552 47.1039 18.4302 47.2971 18.4283C47.4902 18.4264 47.6747 18.3479 47.81 18.21C47.9453 18.0721 48.0202 17.8861 48.0183 17.6929C48.0164 17.4997 47.9379 17.3152 47.8 17.18Z" fill="black"/>
</g>
<defs>
<clipPath id="clip0_64_3">
<rect width="48" height="48" fill="white"/>
</clipPath>
</defs>
</svg>
