<svg width="49" height="49" viewBox="0 0 49 49" fill="none" xmlns="http://www.w3.org/2000/svg">
<path fill-rule="evenodd" clip-rule="evenodd" d="M48.4071 22.3241C48.2888 22.2056 48.1428 22.1103 47.9788 22.0444C47.8148 21.9786 47.6365 21.9436 47.4558 21.942C47.1773 21.942 46.5741 22.1029 46.2492 22.1029H44.3233H38.8704H29.1016C27.7415 22.0341 26.3779 22.0341 25.0177 22.1029C24.0098 22.1674 23.0215 22.3781 22.0941 22.7263C21.8876 22.7969 21.7095 22.9183 21.5817 23.0755C21.4539 23.2327 21.3819 23.419 21.3748 23.6112C21.3478 23.8722 21.4393 24.1319 21.63 24.3352C22.035 24.6641 22.4611 24.973 22.9062 25.2603L25.2266 27.2715C27.0365 28.9005 28.8 30.5295 30.6331 32.1183C31.8397 33.1439 33.0695 34.1294 34.3921 35.0746C34.1609 35.9346 34.0057 36.8086 33.928 37.6891C33.6495 40.7258 34.044 44.1246 34.044 46.8598H32.5822C31.1899 46.8598 29.8441 47.1413 28.4751 47.2218C28.3867 47.2163 28.2979 47.226 28.2138 47.2504C28.1298 47.2747 28.0521 47.3132 27.9853 47.3637C27.9184 47.4142 27.8637 47.4756 27.8244 47.5444C27.785 47.6132 27.7617 47.6881 27.7558 47.7648C27.7495 47.8404 27.7609 47.9163 27.7892 47.988C27.8176 48.0597 27.8624 48.1257 27.9209 48.182C27.9794 48.2383 28.0504 48.2839 28.1297 48.3158C28.209 48.3478 28.2949 48.3656 28.3823 48.3681C29.7634 48.6536 31.1673 48.8485 32.5822 48.9513C33.1927 48.9815 33.8047 48.9815 34.4153 48.9513C35.0216 48.9276 35.6259 48.8739 36.2252 48.7904C37.6259 48.6074 39.0129 48.3522 40.3786 48.0262C40.4787 48.0165 40.5755 47.9892 40.663 47.946C40.7505 47.9028 40.827 47.8446 40.8878 47.775C40.9486 47.7054 40.9924 47.6258 41.0165 47.5411C41.0407 47.4563 41.0447 47.3682 41.0284 47.2821C40.9942 47.1129 40.8856 46.9617 40.7255 46.8605C40.5654 46.7592 40.3662 46.7157 40.1698 46.7391H36.0627H35.5987V38.9963C35.6687 37.3441 36.0528 35.7133 36.7357 34.1696C36.9694 33.8202 37.2955 33.5238 37.687 33.3048C38.4759 32.7618 39.4505 32.259 40.0074 31.8568C42.0843 30.4848 44.0318 28.9717 45.8315 27.3318C47.1445 26.1427 48.1006 24.6925 48.616 23.1084C48.6625 22.8335 48.5879 22.5535 48.4071 22.3241ZM38.6152 30.7306C37.9655 31.2334 36.8053 31.8568 35.9931 32.5205C35.5214 32.88 35.1487 33.3267 34.9026 33.8277L34.7865 34.0489C32.7797 32.4418 30.8889 30.7291 29.1248 28.9206C30.285 29.0412 31.4452 29.1619 32.6286 29.2423C33.812 29.3228 34.2761 29.2423 35.1114 29.2423H37.5942L40.9355 28.9809L38.6152 30.7306ZM44.0216 26.286C43.6272 26.6882 43.2327 27.0703 42.815 27.4323C41.0516 27.3318 39.3113 27.2111 37.571 27.1508H35.1114H32.6518C30.9811 27.1508 29.3104 27.372 27.663 27.4726L26.5724 26.4067L24.252 24.3956C24.53 24.3757 24.8094 24.3757 25.0874 24.3956C26.3781 24.3341 27.6717 24.3341 28.9624 24.3956L38.6616 24.5967H40.9819C42.1189 24.5967 43.3023 24.5967 44.3929 24.4961H45.5763C45.15 25.1334 44.6526 25.7329 44.0912 26.286H44.0216Z" fill="black"/>
<path fill-rule="evenodd" clip-rule="evenodd" d="M40.9354 18.4828C41.5959 18.3813 42.2195 18.1463 42.7557 17.7969C43.2919 17.4475 43.7255 16.9935 44.0215 16.4717C44.3405 15.9769 44.5081 15.4196 44.5081 14.8528C44.5081 14.286 44.3405 13.7286 44.0215 13.2338C43.6882 12.727 43.2084 12.3042 42.6293 12.007C36.5731 8.62835 35.2737 14.0181 36.2946 16.2706C36.6575 17.0451 37.3169 17.6878 38.162 18.0907C39.0071 18.4935 39.9864 18.632 40.9354 18.4828ZM41.3531 13.093C41.761 13.3186 42.0775 13.6491 42.258 14.0383C42.36 14.2741 42.3921 14.5284 42.3516 14.7778C42.3111 15.0272 42.1991 15.2639 42.026 15.4662C41.8877 15.6769 41.6935 15.8562 41.4595 15.989C41.2255 16.1219 40.9583 16.2047 40.6801 16.2304C40.4133 16.2932 40.1346 16.3083 39.8608 16.275C39.5871 16.2416 39.3239 16.1604 39.0875 16.0363C38.851 15.9122 38.646 15.7478 38.485 15.553C38.3241 15.3582 38.2104 15.1371 38.1509 14.903C38.0813 14.6215 37.3852 10.74 41.3531 13.093Z" fill="black"/>
<path fill-rule="evenodd" clip-rule="evenodd" d="M46.2492 7.88424C46.8015 7.69861 47.2511 7.33688 47.5056 6.87321C47.7602 6.40954 47.8004 5.87903 47.6182 5.39045C46.5044 2.83633 41.3764 3.03744 42.9774 6.81834C43.0935 7.08706 43.2747 7.33113 43.5087 7.53416C43.7426 7.73718 44.024 7.89445 44.3339 7.99542C44.6438 8.09638 44.9751 8.1387 45.3054 8.11952C45.6358 8.10035 45.9575 8.02012 46.2492 7.88424Z" fill="black"/>
<path fill-rule="evenodd" clip-rule="evenodd" d="M24.8088 38.9762C24.8088 37.9304 24.6 36.965 24.5072 35.8388L24.2983 32.9026C24.3014 32.8269 24.2869 32.7516 24.2557 32.6809C24.2244 32.6102 24.1771 32.5458 24.1164 32.4913C24.0558 32.4369 23.9831 32.3936 23.9027 32.3641C23.8224 32.3345 23.7359 32.3193 23.6486 32.3193C23.4741 32.3193 23.3064 32.3779 23.1808 32.483C23.0553 32.5881 22.9817 32.7313 22.9757 32.8825L22.6277 35.8388V37.0656C20.5625 36.8645 18.3118 36.6634 15.945 36.5628H12.8357H9.74956C7.42918 36.7036 4.96958 36.9248 2.78843 37.0254C3.2061 32.5808 2.78843 27.8144 3.15969 23.209C3.15969 22.7464 3.15969 22.304 3.34532 21.8414C3.97182 21.8414 4.73755 21.9822 5.6657 22.0224H7.08113C7.54065 21.9818 7.99756 21.9214 8.45015 21.8414C9.84238 21.6805 11.049 21.4794 11.7219 21.4392C11.8213 21.4446 11.921 21.4327 12.0149 21.404C12.1089 21.3754 12.1953 21.3306 12.2689 21.2725C12.3425 21.2143 12.4019 21.1439 12.4434 21.0654C12.485 20.987 12.5079 20.902 12.5108 20.8157C12.5171 20.7312 12.5041 20.6464 12.4725 20.5662C12.4408 20.4861 12.3913 20.4121 12.3266 20.3486C12.2619 20.285 12.1834 20.2332 12.0956 20.196C12.0077 20.1589 11.9123 20.1371 11.8147 20.132C10.6815 19.94 9.5338 19.8191 8.38054 19.77H6.9187C6.43713 19.7893 5.95698 19.8295 5.48007 19.8906L3.64697 20.2124C3.80035 19.3316 4.0095 18.4588 4.27347 17.598C4.46549 17.1492 4.74837 16.7338 5.10881 16.3712C6.12977 15.3053 7.63802 14.5008 8.7518 13.3746C9.12406 12.9897 9.42184 12.555 9.63354 12.0875C9.90311 11.4805 10.1127 10.8548 10.26 10.2171L10.6545 8.20603C10.5321 6.7511 10.737 5.28943 11.2578 3.90223C11.5292 3.59255 11.8803 3.34215 12.2832 3.17105C12.6861 2.99994 13.1295 2.91287 13.5782 2.91678C13.8788 2.88669 14.1825 2.88669 14.4831 2.91678C14.7182 2.92751 14.9478 2.98241 15.156 3.07767C15.4113 3.17823 15.5041 3.43967 15.5969 3.70112C15.7051 4.14587 15.7826 4.59582 15.829 5.04857C16.061 6.33569 15.829 8.24625 15.945 9.87526C16.0039 10.7277 16.2984 11.5554 16.8035 12.2886C17.1638 12.7691 17.5926 13.2083 18.0797 13.5958C19.0775 14.4204 20.2377 15.1444 21.1194 15.9891L21.4675 18.7644C21.4964 18.9387 21.6018 19.0967 21.7617 19.2053C21.9216 19.314 22.1238 19.365 22.326 19.3476C22.521 19.3226 22.6974 19.2334 22.8184 19.0986C22.9394 18.9637 22.9958 18.7936 22.9757 18.6236C22.8133 17.1354 22.8365 16.4516 22.8133 16.0695C22.8028 15.7126 22.6465 15.3706 22.3724 15.1042C21.4907 14.1992 20.3073 13.4148 19.3095 12.55C18.933 12.2252 18.6056 11.8603 18.335 11.464C17.9887 10.9624 17.7822 10.3978 17.7317 9.81492C17.5924 8.14569 17.9869 6.19491 17.7317 4.88768C17.7233 4.10322 17.5826 3.32405 17.314 2.57489C17.073 2.12642 16.6858 1.74889 16.2002 1.48889C15.831 1.27675 15.4231 1.12035 14.9936 1.02633C14.4319 0.956474 13.8615 0.956474 13.2997 1.02633C12.4962 1.03003 11.706 1.20427 10.9981 1.53382C10.2903 1.86337 9.68631 2.3382 9.23908 2.91678C8.49102 4.54011 8.128 6.27742 8.17171 8.02503L7.80044 9.71437C7.69338 10.1771 7.5539 10.6338 7.38278 11.0819C7.25438 11.4177 7.05794 11.731 6.80268 12.007C5.7121 13.1132 4.22706 14.0182 3.15969 15.0036C2.58146 15.5954 2.14027 16.2782 1.86028 17.0147C1.18729 18.9766 0.797587 21.0031 0.700089 23.0481C0.421644 27.6737 1.18737 32.44 0.978535 36.9047L0.630478 46.8195C0.623467 46.9188 0.650591 47.0176 0.708416 47.1036C0.766241 47.1895 0.85217 47.2586 0.955331 47.3022C0.98209 47.4301 1.05911 47.5461 1.1733 47.6304C1.2875 47.7147 1.43185 47.7622 1.58183 47.7647C3.09008 47.8653 5.36405 48.1066 7.89326 48.2273H10.6081H13.3229C21.2818 47.8653 22.6045 49.0317 24.0663 46.6988C24.6816 45.598 24.9687 44.3811 24.9016 43.1593V41.1482C24.9016 40.5448 24.8552 39.68 24.8088 38.9762ZM22.3724 45.8743C21.7459 47.2217 21.6531 46.3771 13.2533 46.1357C11.8379 46.1357 10.3529 46.0352 8.91423 46.1357C6.24579 46.1357 3.8094 46.4575 2.09232 46.6184L2.76523 38.3125C5.0856 38.4935 7.96287 38.7348 10.7937 38.775H15.7361C18.0565 38.775 20.3769 38.5739 22.5116 38.5739C22.524 38.7481 22.524 38.9227 22.5116 39.0968V41.1079C22.5116 41.7113 22.5116 42.8777 22.6741 43.7425C22.7526 44.4636 22.6497 45.191 22.3724 45.8743Z" fill="black"/>
</svg>
