<svg width="24" height="24" viewBox="0 0 24 24" fill="none" xmlns="http://www.w3.org/2000/svg">
<path d="M10.17 6.94C9.08932 7.2504 8.14285 7.91187 7.47995 8.82C7.10674 9.39682 6.85794 10.0451 6.74947 10.7236C6.64099 11.402 6.67521 12.0956 6.84995 12.76C7.01529 13.4509 7.34805 14.0904 7.81891 14.6223C8.28976 15.1542 8.88425 15.5621 9.54995 15.81C10.4556 16.122 11.4246 16.2045 12.37 16.05C13.2919 15.8879 14.1683 15.5299 14.94 15C15.2492 14.7921 15.5372 14.5543 15.8 14.29C15.993 14.0913 16.161 13.8697 16.3 13.63C16.4601 13.3162 16.5682 12.9785 16.62 12.63C16.695 12.1429 16.695 11.6471 16.62 11.16C16.4712 10.2356 16.1082 9.35894 15.56 8.6C14.9537 7.78747 14.1047 7.18876 13.1359 6.89036C12.167 6.59197 11.1283 6.60935 10.17 6.94ZM14.88 9C15.3275 9.66631 15.6055 10.4318 15.69 11.23C15.7358 11.5617 15.7358 11.8982 15.69 12.23C15.6613 12.5356 15.5694 12.8319 15.42 13.1C15.2972 13.2952 15.1415 13.4678 14.96 13.61C14.764 13.7817 14.5532 13.9357 14.33 14.07C13.6828 14.501 12.9488 14.7844 12.18 14.9C11.4251 15.024 10.6511 14.9552 9.92995 14.7C9.44073 14.5126 9.00369 14.2104 8.65564 13.8188C8.30758 13.4273 8.05871 12.9578 7.92995 12.45C7.7677 11.928 7.71416 11.3783 7.77263 10.8348C7.83111 10.2913 8.00037 9.76553 8.26995 9.29C8.7777 8.52376 9.52766 7.94986 10.4 7.66C11.184 7.31342 12.0659 7.25796 12.8871 7.5036C13.7084 7.74924 14.415 8.27985 14.88 9Z" fill="white"/>
<path d="M24 10.47C24.0056 10.2077 23.9788 9.9457 23.92 9.69C23.8858 9.53178 23.8138 9.38423 23.71 9.26C23.5533 9.08002 23.3487 8.94824 23.12 8.88C22.8719 8.8101 22.6172 8.76653 22.36 8.75C21.9339 8.773 21.5077 8.70482 21.11 8.55C21.0108 8.49223 20.926 8.41272 20.8619 8.31747C20.7978 8.22221 20.7561 8.11367 20.74 8L20.52 7L20.36 6.38C20.45 6.06 20.87 5.85 21.06 5.56C21.1437 5.43892 21.1997 5.30085 21.2239 5.15565C21.2481 5.01044 21.2399 4.86169 21.2 4.72C21.1017 4.44659 20.9408 4.2 20.73 4C20.33 3.58 19.73 3.27 19.36 2.93C19.14 2.74 18.89 2.44 18.62 2.22C18.4791 2.09986 18.3206 2.00206 18.15 1.93C18.0012 1.86771 17.8403 1.83985 17.6793 1.84851C17.5182 1.85717 17.3612 1.90212 17.22 1.98C16.8 2.21 16.48 2.77 16.15 2.98C16.0438 3.02082 15.9262 3.02082 15.82 2.98C15.6405 2.95392 15.4633 2.91379 15.29 2.86C14.9885 2.78864 14.6988 2.67412 14.43 2.52C14.2928 2.44118 14.1869 2.31761 14.13 2.17L13.82 1.03C13.81 0.887332 13.7832 0.746349 13.74 0.610001C13.7087 0.514767 13.6495 0.431149 13.57 0.370001C13.445 0.288539 13.306 0.230903 13.16 0.200001C12.9687 0.143867 12.7687 0.123527 12.57 0.140001C12.5254 0.143941 12.4819 0.156636 12.4422 0.177363C12.4024 0.198089 12.3672 0.22644 12.3384 0.260798C12.2802 0.330186 12.2521 0.419827 12.26 0.510001C12.268 0.600175 12.3114 0.683494 12.3808 0.741631C12.4502 0.799767 12.5398 0.827958 12.63 0.820001C12.7296 0.806668 12.8305 0.806668 12.93 0.820001H13.1V1.07L13.43 2.34C13.5387 2.62629 13.7346 2.87117 13.99 3.04C14.3165 3.23737 14.6703 3.38562 15.04 3.48C15.3025 3.57002 15.5741 3.6304 15.85 3.66C16.0921 3.67624 16.3332 3.61684 16.54 3.49C16.82 3.31 17.1 2.87 17.44 2.61C17.4893 2.56202 17.5506 2.5283 17.6176 2.51245C17.6845 2.4966 17.7545 2.49921 17.82 2.52C17.9529 2.58725 18.0744 2.67499 18.18 2.78C18.4 2.99 18.61 3.24 18.81 3.41C19.01 3.58 19.59 3.96 19.95 4.29C20.1437 4.44018 20.2868 4.64608 20.36 4.88C20.36 5.02 20.27 5.1 20.17 5.2C20.07 5.3 19.88 5.47 19.75 5.62C19.6401 5.75364 19.5554 5.90611 19.5 6.07C19.4698 6.21511 19.4698 6.36489 19.5 6.51C19.5423 6.73017 19.5991 6.94731 19.67 7.16L19.88 8.16C19.9243 8.37798 20.0117 8.58492 20.137 8.76866C20.2624 8.9524 20.4232 9.10925 20.61 9.23C21.1236 9.45734 21.6784 9.57648 22.24 9.58C22.4021 9.58507 22.5632 9.60855 22.72 9.65C22.8075 9.65738 22.8893 9.69651 22.95 9.76L23.01 10.36C23.0471 10.9062 23.0437 11.4543 23 12C22.9936 12.2246 22.9166 12.4416 22.78 12.62L22.38 12.7C22.1361 12.769 21.9012 12.8663 21.68 12.99C21.5115 13.0848 21.3595 13.2064 21.23 13.35C20.9998 13.6085 20.8017 13.8939 20.64 14.2C20.4002 14.6198 20.1864 15.0539 20 15.5C19.8337 15.8887 19.7486 16.3072 19.75 16.73C19.7704 17.1754 19.8936 17.6101 20.11 18C20.22 18.22 20.42 18.5 20.53 18.78C20.53 18.87 20.62 18.95 20.53 19.02L19 20.16L18.57 20.44L17.73 19.87C17.359 19.6788 16.9474 19.5793 16.53 19.58C15.9623 19.6134 15.4075 19.7632 14.9 20.02C14.5822 20.1542 14.283 20.329 14.01 20.54C13.8302 20.6865 13.6951 20.8805 13.62 21.1L13.36 22.55L13.3 22.67C13.1039 22.6899 12.9062 22.6899 12.71 22.67C12.28 22.61 11.85 22.51 11.45 22.46L11 22.37C10.9277 22.3679 10.8578 22.3434 10.8 22.3C10.48 22.02 10.45 21.58 10.22 21.3C10.0431 21.0592 9.79983 20.875 9.52001 20.77L8.00001 20.28C7.75001 20.19 7.48001 20.05 7.21001 19.97C7.04831 19.9184 6.87975 19.8914 6.71001 19.89C6.52331 19.8892 6.33879 19.9302 6.17001 20.01C5.96946 20.1014 5.784 20.2228 5.62001 20.37C5.53107 20.4698 5.42634 20.5542 5.31001 20.62C5.19117 20.5146 5.06771 20.4145 4.94001 20.32C4.57001 20.04 4.15001 19.78 3.79001 19.47C3.58983 19.3083 3.42045 19.1118 3.29001 18.89C3.25041 18.8108 3.22979 18.7235 3.22979 18.635C3.22979 18.5465 3.25041 18.4592 3.29001 18.38C3.49001 17.89 3.88001 17.38 4.01001 16.96C4.06071 16.7294 4.06071 16.4906 4.01001 16.26C3.91274 15.8858 3.78222 15.521 3.62001 15.17L3.36001 14.64C3.20209 14.3867 2.96734 14.1905 2.69001 14.08C2.46548 14.0181 2.23275 13.9911 2.00001 14C1.84091 14.0037 1.6832 13.9695 1.54001 13.9C1.54001 13.83 1.47001 13.58 1.43001 13.47C1.32001 13 1.15001 12.6 1.00001 12.18C0.964591 11.9313 0.964591 11.6787 1.00001 11.43C0.997938 11.3487 1.0139 11.268 1.04676 11.1937C1.07961 11.1193 1.12853 11.0532 1.19001 11C1.62318 10.7974 2.04096 10.5635 2.44001 10.3C2.53535 10.2133 2.61636 10.112 2.68001 10C2.79001 9.83 2.87001 9.63 2.96001 9.47C3.05001 9.31 3.32001 8.87 3.48001 8.57C3.60134 8.34417 3.69855 8.1062 3.77001 7.86C3.8734 7.50782 3.84129 7.12971 3.68001 6.8C3.46185 6.449 3.21784 6.11474 2.95001 5.8C2.88509 5.71739 2.8313 5.62662 2.79001 5.53C2.79001 5.46 2.72001 5.38 2.79001 5.31C2.94398 5.07885 3.12161 4.86436 3.32001 4.67C3.63467 4.36231 3.96868 4.07505 4.32001 3.81C4.45235 3.70078 4.5966 3.60686 4.75001 3.53C4.87312 3.46434 5.01049 3.43 5.15001 3.43L5.50001 3.71C5.67371 3.8665 5.86113 4.00707 6.06001 4.13C6.20783 4.21832 6.3656 4.28881 6.53001 4.34C6.76162 4.4092 7.0084 4.4092 7.24001 4.34C7.6143 4.1707 7.97532 3.97348 8.32001 3.75L8.79001 3.48L9.16001 3.22C9.25519 3.14457 9.3343 3.05086 9.3927 2.94438C9.45109 2.8379 9.48758 2.7208 9.50001 2.6C9.51335 2.39741 9.48962 2.19408 9.43001 2C9.38473 1.84661 9.38473 1.6834 9.43001 1.53L9.74001 1.38C9.98638 1.27451 10.2451 1.20059 10.51 1.16C10.9235 1.08446 11.3408 1.03105 11.76 1C11.8396 1 11.9159 0.968394 11.9721 0.912133C12.0284 0.855872 12.06 0.779566 12.06 0.700001C12.06 0.620436 12.0284 0.54413 11.9721 0.487869C11.9159 0.431608 11.8396 0.400001 11.76 0.400001C11.3026 0.429366 10.848 0.492876 10.4 0.590001C10.0826 0.642722 9.77109 0.726456 9.47001 0.840001C9.3086 0.87822 9.15122 0.931797 9.00001 1C8.90497 1.07163 8.83216 1.16871 8.79001 1.28C8.64001 1.7 8.88001 2.08 8.79001 2.44C8.78527 2.47602 8.77303 2.51066 8.75409 2.54166C8.73514 2.57266 8.70991 2.59935 8.68001 2.62L8.40001 2.81L8.00001 3.08C7.77001 3.19 7.46001 3.42 7.14001 3.55C7.01823 3.6176 6.87842 3.64556 6.74001 3.63C6.60653 3.57717 6.47913 3.51011 6.36001 3.43C6.23001 3.34 6.10001 3.23 5.98001 3.13C5.85094 2.991 5.70671 2.86689 5.55001 2.76C5.44344 2.69672 5.32362 2.65906 5.20001 2.65C4.9844 2.63864 4.76901 2.67624 4.57001 2.76C4.31186 2.86199 4.06945 3.00003 3.85001 3.17C3.46735 3.44991 3.10015 3.75035 2.75001 4.07C2.50693 4.29583 2.289 4.54729 2.10001 4.82C2.03829 4.92258 1.99765 5.03644 1.98048 5.15492C1.96331 5.2734 1.96995 5.39412 2.00001 5.51C2.04617 5.77865 2.15589 6.03236 2.32001 6.25C2.55908 6.5344 2.7732 6.83885 2.96001 7.16C3.01588 7.31169 3.01588 7.47831 2.96001 7.63C2.89722 7.81882 2.81336 7.99996 2.71001 8.17C2.55001 8.47 2.36001 8.75 2.19001 9.03L1.85001 9.63C1.41001 10.01 0.790012 10.09 0.430012 10.45C0.182954 10.6904 0.0364095 11.0157 0.020012 11.36C-0.00101261 11.696 0.0293365 12.0332 0.110012 12.36C0.210012 12.81 0.380012 13.25 0.520012 13.69C0.553597 13.8764 0.600382 14.0602 0.660012 14.24C0.718295 14.3973 0.822892 14.5333 0.960012 14.63C1.20261 14.8251 1.49235 14.9527 1.80001 15C1.96939 15.0054 2.13741 15.0323 2.30001 15.08C2.37246 15.1136 2.4321 15.1697 2.47001 15.24L2.64001 15.6C2.7348 15.8189 2.81825 16.0425 2.89001 16.27C2.95454 16.4071 2.97881 16.5597 2.96001 16.71C2.80001 17.23 2.30001 17.71 2.15001 18.32C2.04488 18.7026 2.09145 19.1109 2.28001 19.46C2.47343 19.803 2.72756 20.1079 3.03001 20.36C3.40001 20.68 3.84001 20.95 4.22001 21.25C4.39757 21.4164 4.59195 21.5638 4.80001 21.69C4.98944 21.7925 5.20689 21.8311 5.42001 21.8C5.58894 21.7621 5.7509 21.698 5.90001 21.61C6.06555 21.5021 6.22267 21.3817 6.37001 21.25C6.46001 21.18 6.55001 21.07 6.67001 21.07C6.76261 21.0756 6.85374 21.0959 6.94001 21.13C7.16001 21.21 7.38001 21.32 7.59001 21.4L9.11001 21.84C9.18127 21.87 9.24336 21.9183 9.29001 21.98C9.56001 22.36 9.65001 22.87 10.03 23.2C10.1686 23.3184 10.328 23.4099 10.5 23.47C10.7754 23.5433 11.0563 23.5935 11.34 23.62C11.81 23.68 12.34 23.81 12.83 23.85C13.0861 23.8748 13.3439 23.8748 13.6 23.85C13.7706 23.8265 13.9305 23.7535 14.06 23.64C14.2317 23.4762 14.3679 23.2787 14.46 23.06C14.5377 22.8742 14.5914 22.6793 14.62 22.48C14.6466 22.1442 14.6934 21.8102 14.76 21.48C14.76 21.39 14.91 21.36 15.01 21.3C15.11 21.24 15.31 21.16 15.42 21.11C15.7341 20.9486 16.0715 20.8372 16.42 20.78C16.711 20.7401 17.0072 20.7889 17.27 20.92C17.5 21.04 17.82 21.35 18.11 21.48C18.2515 21.5564 18.4093 21.5976 18.57 21.6C18.7382 21.609 18.906 21.5781 19.06 21.51C19.2853 21.4065 19.4969 21.2755 19.69 21.12L21.29 19.85C21.4238 19.7368 21.5289 19.5935 21.5967 19.4318C21.6645 19.2702 21.6931 19.0948 21.68 18.92C21.5671 18.4254 21.3673 17.9548 21.09 17.53C20.9495 17.2933 20.8704 17.0251 20.86 16.75C20.8583 16.4645 20.9162 16.1818 21.03 15.92C21.1797 15.5069 21.3533 15.1029 21.55 14.71C21.6708 14.456 21.8219 14.2176 22 14C22.0767 13.917 22.1683 13.8491 22.27 13.8C22.3952 13.7357 22.5257 13.6821 22.66 13.64C22.79 13.64 22.96 13.59 23.1 13.54C23.2206 13.4971 23.3324 13.4327 23.43 13.35C23.7028 13.08 23.8816 12.7294 23.94 12.35C24.0205 11.7267 24.0406 11.0971 24 10.47Z" fill="white"/>
</svg>
