<svg width="48" height="48" viewBox="0 0 48 48" fill="none" xmlns="http://www.w3.org/2000/svg">
<path fill-rule="evenodd" clip-rule="evenodd" d="M27.3432 26.0747C27.6432 24.1811 27.9632 22.2666 28.1632 20.3522H28.5832C28.7432 20.3522 29.3633 20.6019 30.0433 20.7476C31.3634 20.3314 31.3034 19.7071 30.3433 18.958C29.6827 18.8055 29.0152 18.6875 28.3432 18.6042C28.4514 16.9862 28.6383 15.3749 28.9032 13.7765C28.7832 11.6956 27.3232 12.0494 26.7631 13.7765C26.7745 13.9081 26.7745 14.0404 26.7631 14.1719C26.5231 15.5661 26.2831 16.9811 26.0831 18.3337C23.823 18.2089 24.243 18.3337 19.3228 18.3337C19.3228 17.9176 18.8428 15.5869 18.5628 13.9222C18.2827 12.2575 16.9827 12.1951 16.8627 13.9222C16.8627 14.9627 16.8627 16.2528 17.0227 18.3337C15.6826 18.3337 15.2626 18.3337 11.2224 18.6667C11.0087 17.122 10.7014 15.593 10.3024 14.0887C9.50234 12.5696 8.00227 13.0898 8.00227 14.2968C8.34228 16.1696 8.16227 15.4829 8.7023 19.0204C7.64795 19.1822 6.5765 19.1822 5.52215 19.0204C3.52205 19.2077 3.26204 20.7268 5.94217 20.9765H9.00231C9.50234 24.2851 9.56234 24.8053 9.94236 26.7406C8.85757 27.0103 7.72699 27.0103 6.6422 26.7406C5.76216 26.3452 4.04208 28.8215 10.3424 28.3845C10.5775 29.3223 10.9129 30.2297 11.3424 31.0897C11.4387 31.2443 11.5865 31.3566 11.7573 31.4051C11.9282 31.4535 12.1103 31.4347 12.2687 31.3523C12.4271 31.2699 12.5508 31.1297 12.616 30.9584C12.6813 30.7871 12.6836 30.5967 12.6225 30.4238C12.3406 29.7603 12.1455 29.0604 12.0425 28.3429C13.7425 28.218 14.5826 28.3429 18.6828 28.1972C19.0179 29.1044 19.2593 30.0461 19.4028 31.0064C19.4028 31.2051 19.4787 31.3957 19.6137 31.5362C19.7487 31.6766 19.9319 31.7556 20.1228 31.7556C20.3138 31.7556 20.4969 31.6766 20.632 31.5362C20.767 31.3957 20.8429 31.2051 20.8429 31.0064C20.8353 30.0457 20.7212 29.0891 20.5029 28.1556H25.1431C24.7831 32.8376 27.8232 31.0689 26.7431 29.966C26.5231 29.6955 26.7431 28.3637 26.8832 28.0099C28.1432 27.8227 28.6232 27.8435 29.2433 27.7186C29.8633 27.5938 30.2833 26.1163 29.5233 26.0539C28.7632 25.9915 28.5432 26.0747 27.3432 26.0747ZM11.8024 26.3868C11.8024 25.7418 11.4824 22.225 11.3624 21.0389H17.1627C17.3238 22.6407 17.6046 24.227 18.0027 25.7834C15.9271 25.8808 13.8576 26.0892 11.8024 26.4076V26.3868ZM25.3631 26.0747C23.663 26.0747 21.8629 25.8458 20.1428 25.7626C20.0428 24.8886 19.6628 21.6008 19.5628 20.81C22.4429 20.6227 24.043 20.4146 25.7431 20.3522C25.5031 23.2031 25.3831 26.0747 25.3631 26.0747Z" fill="black"/>
<path fill-rule="evenodd" clip-rule="evenodd" d="M45.5846 0.375503C43.3965 -0.0873545 41.1448 -0.122636 38.9443 0.271458C35.7841 1.2911 36.9442 -0.87304 33.8241 9.38583C32.504 14.5881 29.4039 31.3186 29.8239 31.9845C11.023 32.2966 10.743 32.692 5.68273 31.1729C5.82274 30.7567 5.34272 29.633 5.30272 29.4458C2.62259 16.6482 1.86255 15.5245 2.60259 13.2563C12.0472 11.6224 21.61 10.8426 31.1839 10.9257C31.2509 10.9817 31.3278 11.0235 31.4103 11.0486C31.4928 11.0736 31.5792 11.0816 31.6647 11.0719C31.7501 11.0623 31.8329 11.0352 31.9082 10.9922C31.9836 10.9493 32.0501 10.8913 32.104 10.8217C32.1578 10.752 32.1979 10.6719 32.2221 10.5861C32.2462 10.5003 32.2538 10.4104 32.2445 10.3215C32.2352 10.2326 32.2092 10.1465 32.1679 10.0681C32.1267 9.98965 32.0709 9.92045 32.004 9.86443C30.8439 8.96964 9.08289 10.0309 9.2629 10.0309C6.62701 9.74735 3.96382 10.1035 1.48254 11.0714C-0.617563 12.0702 0.00246587 16.8771 0.422486 19.1453C2.00256 25.2839 1.42253 22.8493 2.98261 29.8619C3.10261 30.507 3.12261 32.1301 3.72264 32.7336C6.70278 35.7093 21.7235 33.5451 29.4439 33.5035C29.0238 34.981 28.8638 35.8758 27.6438 36.2295C26.3139 36.3713 24.9735 36.3713 23.6436 36.2295C17.8633 36.5208 12.303 35.2723 3.64264 36.2295C3.47289 36.2157 3.30483 36.2726 3.17542 36.3878C3.04602 36.5029 2.96587 36.6668 2.9526 36.8434C2.93934 37.02 2.99406 37.1948 3.10471 37.3295C3.21536 37.4641 3.37289 37.5475 3.54263 37.5613C2.87899 37.8349 2.27794 38.2504 1.77837 38.7809C1.2788 39.3114 0.891828 39.9451 0.642496 40.641C-0.357551 43.5127 2.40258 47.071 5.18271 47.8202C10.723 49.2976 14.9232 41.2861 10.703 37.8942C11.3185 37.9069 11.9328 37.9555 12.5431 38.0399C16.5031 38.7703 20.5401 38.9383 24.5436 38.5393C20.8034 42.2641 24.6636 47.7785 29.4839 47.2167C34.7841 46.5716 34.4441 37.7486 29.9039 36.9578C31.2439 35.2931 30.6639 33.7116 32.784 25.4504C34.3065 19.3344 35.5149 13.1384 36.4042 6.88874C37.3642 6.63903 43.8245 7.2633 45.1846 7.18007C45.936 7.05162 46.6232 6.66144 47.1336 6.07347C47.644 5.48549 47.9472 4.73459 47.9937 3.94381C48.0402 3.15303 47.8272 2.36927 47.3895 1.72097C46.9518 1.07266 46.3154 0.598262 45.5846 0.375503ZM9.88293 43.1797C9.60623 43.8183 9.17061 44.3685 8.62111 44.7733C8.0716 45.178 7.42816 45.4228 6.75729 45.4822C6.08642 45.5416 5.41248 45.4135 4.80513 45.1111C4.19778 44.8088 3.67907 44.3432 3.30262 43.7624C2.95999 43.4411 2.69596 43.0394 2.53247 42.5906C2.36898 42.1418 2.31074 41.659 2.36258 41.1821C2.51142 40.4939 2.86904 39.8738 3.38263 39.4133C6.84279 36.2295 12.003 39.0595 9.88293 43.1797ZM31.4239 41.2237C32.024 47.0502 24.6236 44.6988 25.2637 41.2237C25.7837 38.4353 30.9439 36.6249 31.4239 41.2237ZM44.9646 4.7246C43.6045 4.91188 38.8643 4.9535 36.7042 5.24482C36.8315 4.15934 37.073 3.09169 37.4242 2.06104C37.6242 2.37317 38.8043 1.91537 39.3043 1.81133C41.2514 1.78784 43.1896 2.08995 45.0446 2.70612C45.8446 2.95583 45.7446 4.64136 44.9646 4.7246Z" fill="black"/>
</svg>
