<svg width="50" height="50" viewBox="0 0 50 50" fill="none" xmlns="http://www.w3.org/2000/svg">
<path fill-rule="evenodd" clip-rule="evenodd" d="M49.9069 4.24347C49.2719 0.0804272 43.0491 -0.20668 39.3662 0.080427C32.8471 0.941747 24.8888 4.05207 21.4176 4.86554C21.062 4.91367 20.7364 5.11427 20.508 5.42594C20.2795 5.7376 20.1657 6.13651 20.1899 6.54033C20.4439 9.5071 24.8888 6.92314 37.1227 6.01397C38.9358 5.79043 40.7616 5.72644 42.5835 5.82256C28.1991 17.5981 14.731 30.7412 2.32591 45.1083C1.05595 46.4482 -0.806649 47.5966 0.378642 48.8407C0.674965 49.702 1.30994 50.4676 2.24124 49.6542C17.3717 37.585 31.5365 24.0391 44.573 9.17214C42.972 17.1228 40.8929 24.9407 38.3503 32.5713C38.0471 32.8823 37.8657 33.3166 37.8459 33.7787C37.826 34.2409 37.9694 34.693 38.2444 35.0357C38.5195 35.3783 38.9037 35.5834 39.3126 35.6059C39.7214 35.6283 40.1214 35.4662 40.4245 35.1553C41.3135 34.0069 51.0498 10.4641 49.9069 4.24347Z" fill="black"/>
</svg>
